<svg xmlns="http://www.w3.org/2000/svg" xmlns:xlink="http://www.w3.org/1999/xlink" width="200" zoomAndPan="magnify" viewBox="0 0 150 52.499999" height="70" preserveAspectRatio="xMidYMid meet" version="1.0"><defs><g/><clipPath id="1368122a65"><path d="M 0.707031 0 L 149.292969 0 L 149.292969 52.003906 L 0.707031 52.003906 Z M 0.707031 0 " clip-rule="nonzero"/></clipPath></defs><g clip-path="url(#1368122a65)"><path fill="#ffffff" d="M 0.707031 0 L 149.292969 0 L 149.292969 52.003906 L 0.707031 52.003906 Z M 0.707031 0 " fill-opacity="1" fill-rule="nonzero"/><path fill="#566d75" d="M 0.707031 0 L 149.292969 0 L 149.292969 52.003906 L 0.707031 52.003906 Z M 0.707031 0 " fill-opacity="1" fill-rule="nonzero"/></g><g fill="#ffffff" fill-opacity="1"><g transform="translate(6.074555, 35.546078)"><g><path d="M 16.96875 -8.128906 L 16.195312 -8.160156 C 16.347656 -7.171875 15.546875 -5.410156 14 -5.410156 C 12.484375 -5.410156 10.722656 -7.820312 7.664062 -7.820312 C 5.53125 -7.820312 2.996094 -6.800781 1.636719 -4.234375 C 2.628906 -9.054688 7.480469 -7.695312 7.480469 -11.28125 L 7.480469 -20.953125 L 0.710938 -20.953125 L 0.710938 0 L 1.484375 0 C 1.484375 -1.484375 1.855469 -3.089844 4.019531 -3.089844 C 6.148438 -3.089844 6.859375 0.214844 11.464844 0.214844 C 17.367188 0.214844 17.554688 -5.347656 16.96875 -8.128906 Z M 16.96875 -8.128906 "/></g></g></g><g fill="#ffffff" fill-opacity="1"><g transform="translate(22.884395, 35.546078)"><g><path d="M 9.148438 -16.597656 C 7.882812 -20.890625 5.007812 -20.953125 0.710938 -20.953125 L 0.710938 0 L 7.480469 0 L 7.480469 -0.585938 C 7.480469 -8.191406 2.070312 -4.359375 1.515625 -18.449219 C 2.132812 -16.472656 2.285156 -16.101562 3.183594 -13.074219 C 4.730469 -8.003906 10.351562 -9.671875 10.351562 -4.449219 L 11.125 -4.449219 C 11.125 -9.671875 16.75 -8.003906 18.296875 -13.074219 C 19.160156 -16.039062 19.316406 -16.472656 19.902344 -18.359375 C 19.347656 -4.359375 14 -8.191406 14 -0.585938 L 14 0 L 20.769531 0 L 20.769531 -20.953125 L 19.964844 -20.953125 C 16.101562 -20.921875 13.503906 -20.613281 12.300781 -16.597656 C 11.464844 -13.753906 11.558594 -14.214844 10.878906 -11.773438 C 10.816406 -11.558594 10.753906 -11.34375 10.722656 -11.125 L 10.570312 -11.773438 C 9.921875 -14.214844 10.011719 -13.753906 9.148438 -16.597656 Z M 9.148438 -16.597656 "/></g></g></g><g fill="#ffffff" fill-opacity="1"><g transform="translate(43.433263, 35.546078)"><g/></g></g><g fill="#ffffff" fill-opacity="1"><g transform="translate(50.673241, 35.546078)"><g><path d="M 15.113281 -13.320312 C 19.71875 -13.320312 20.675781 -17.585938 20.210938 -20.984375 L 19.53125 -20.984375 C 19.53125 -19.625 19.191406 -18.757812 17.679688 -18.757812 C 16.132812 -18.757812 14.125 -21.140625 11.035156 -21.140625 C 5.253906 -21.140625 0.554688 -16.378906 0.554688 -10.476562 C 0.554688 -4.574219 5.253906 0.214844 11.035156 0.214844 C 15.144531 0.214844 19.128906 -2.195312 20.832031 -5.6875 L 20.210938 -6.027344 C 19.070312 -3.832031 16.9375 -1.824219 14.1875 -2.503906 C 12.207031 -2.96875 9.859375 -5.191406 7.820312 -8.46875 C 4.945312 -13.105469 4.046875 -17.738281 5.839844 -18.851562 C 8.960938 -20.832031 10.539062 -13.320312 15.113281 -13.320312 Z M 15.113281 -13.320312 "/></g></g></g><g fill="#ffffff" fill-opacity="1"><g transform="translate(70.604086, 35.546078)"><g><path d="M 11.035156 -21.140625 C 5.253906 -21.140625 0.554688 -16.378906 0.554688 -10.476562 C 0.554688 -4.574219 5.253906 0.214844 11.035156 0.214844 C 16.84375 0.214844 21.511719 -4.574219 21.511719 -10.476562 C 21.511719 -16.378906 16.84375 -21.140625 11.035156 -21.140625 Z M 16.257812 -2.070312 C 14.496094 -0.988281 10.691406 -3.832031 7.820312 -8.46875 C 4.945312 -13.105469 4.046875 -17.738281 5.808594 -18.851562 C 7.601562 -19.964844 11.375 -17.089844 14.246094 -12.453125 C 17.152344 -7.851562 18.019531 -3.183594 16.257812 -2.070312 Z M 16.257812 -2.070312 "/></g></g></g><g fill="#ffffff" fill-opacity="1"><g transform="translate(91.740076, 35.546078)"><g><path d="M 8.003906 0.214844 C 13.785156 0.214844 18.480469 -4.574219 18.480469 -10.476562 C 18.480469 -16.378906 13.785156 -21.171875 8.003906 -21.171875 C 4.914062 -21.171875 0.710938 -19.78125 0.710938 -14.464844 L 0.710938 0 L 5.871094 0 C 6.519531 0.125 7.324219 0.214844 8.003906 0.214844 Z M 4.449219 -18.976562 C 6.210938 -18.480469 9.054688 -15.917969 11.21875 -12.453125 C 14.09375 -7.851562 14.988281 -3.183594 13.195312 -2.070312 C 11.929688 -1.296875 9.671875 -2.503906 7.480469 -4.882812 L 7.480469 -11.683594 C 7.480469 -15.667969 3.738281 -15.484375 2.996094 -17.308594 C 2.6875 -18.078125 2.875 -19.410156 4.449219 -18.976562 Z M 4.449219 -18.976562 "/></g></g></g><g fill="#ffffff" fill-opacity="1"><g transform="translate(109.816864, 35.546078)"><g><path d="M 13.382812 -11.28125 L 9.363281 -11.28125 C 2.472656 -11.28125 1.390625 -17.183594 3.492188 -18.449219 C 6.644531 -20.367188 7.230469 -13.320312 11.804688 -13.320312 C 16.410156 -13.320312 17.367188 -17.585938 16.90625 -20.984375 L 16.226562 -20.984375 C 16.226562 -19.625 15.886719 -18.757812 14.371094 -18.757812 C 12.824219 -18.757812 10.691406 -21.140625 7.632812 -21.140625 C -1.082031 -21.140625 0.15625 -12.515625 6.859375 -10.753906 C 3.214844 -10.105469 0.554688 -8.53125 0.554688 -5.53125 C 0.554688 -2.164062 4.078125 0.214844 9.890625 0.214844 C 14.0625 0.214844 16.316406 -1.175781 18.171875 -3.246094 L 17.832031 -3.617188 C 15.144531 -0.773438 10.105469 0.339844 7.664062 -4.480469 C 5.78125 -8.160156 6.800781 -10.476562 10.011719 -10.476562 L 12.855469 -10.476562 Z M 13.382812 -11.28125 "/></g></g></g><g fill="#ffffff" fill-opacity="1"><g transform="translate(126.472203, 35.546078)"><g><path d="M 0.554688 -14.804688 C 0.554688 -10.722656 3.648438 -9.210938 7.882812 -7.972656 C 13.105469 -6.429688 16.039062 -3.957031 14.585938 -2.65625 C 11.992188 -0.371094 10.382812 -7.632812 5.78125 -7.632812 C 1.207031 -7.632812 0.246094 -3.367188 0.710938 0.03125 L 1.390625 0.03125 C 1.390625 -1.328125 1.699219 -2.195312 3.246094 -2.195312 C 4.789062 -2.195312 6.800781 0.214844 9.859375 0.214844 C 13.847656 0.214844 16.875 -2.84375 16.875 -6.304688 C 16.875 -10.601562 11.464844 -12.453125 8.871094 -13.195312 C 3.648438 -14.648438 1.234375 -17.027344 2.71875 -18.265625 C 5.4375 -20.519531 6.488281 -13.320312 11.09375 -13.320312 C 15.699219 -13.320312 16.628906 -17.585938 16.195312 -20.984375 L 15.484375 -20.984375 C 15.484375 -19.625 15.175781 -18.757812 13.628906 -18.757812 C 12.113281 -18.757812 10.507812 -21.140625 7.449219 -21.140625 C 3.523438 -21.140625 0.554688 -18.203125 0.554688 -14.804688 Z M 0.554688 -14.804688 "/></g></g></g></svg>